<svg width="21" height="20" viewBox="0 0 21 20" fill="none" xmlns="http://www.w3.org/2000/svg">
<path d="M5.5 14.1667C5.5 14.9416 5.5 15.3291 5.58519 15.647C5.81635 16.5098 6.49022 17.1836 7.35295 17.4148C7.67087 17.5 8.05836 17.5 8.83333 17.5H14C15.4001 17.5 16.1002 17.5 16.635 17.2275C17.1054 16.9878 17.4878 16.6054 17.7275 16.135C18 15.6002 18 14.9001 18 13.5V6.5C18 5.09987 18 4.3998 17.7275 3.86502C17.4878 3.39462 17.1054 3.01217 16.635 2.77248C16.1002 2.5 15.4001 2.5 14 2.5H8.83333C8.05836 2.5 7.67087 2.5 7.35295 2.58519C6.49022 2.81635 5.81635 3.49022 5.58518 4.35295C5.5 4.67087 5.5 5.05836 5.5 5.83333M10.5 6.66667L13.8333 10M13.8333 10L10.5 13.3333M13.8333 10H3" stroke="white" stroke-width="2" stroke-linecap="round" stroke-linejoin="round"/>
</svg>
